<svg xmlns="http://www.w3.org/2000/svg" width="1200" height="675" viewBox="0 0 1200 675" role="img" aria-label="Application Tracker preview">
  <defs>
    <linearGradient id="bg" x1="0" y1="0" x2="1" y2="1">
      <stop offset="0" stop-color="#0f172a"/>
      <stop offset="1" stop-color="#1f2937"/>
    </linearGradient>
  </defs>
  <rect width="1200" height="675" rx="28" fill="url(#bg)"/>
  <text x="70" y="88" fill="#f8fafc" font-family="Inter, Arial, sans-serif" font-size="44" font-weight="800">Application Tracker</text>
  <text x="72" y="128" fill="#94a3b8" font-family="Inter, Arial, sans-serif" font-size="22">Bewerbungen sichtbar halten: Status, Links und nächste Schritte.</text>
  <rect x="70" y="175" width="1060" height="92" rx="18" fill="#111827" stroke="#334155"/>
  <rect x="96" y="207" width="210" height="30" rx="7" fill="#1e293b"/>
  <rect x="330" y="207" width="250" height="30" rx="7" fill="#1e293b"/>
  <rect x="604" y="207" width="170" height="30" rx="7" fill="#1e293b"/>
  <rect x="798" y="203" width="130" height="38" rx="9" fill="#f59e0b"/>
  <text x="830" y="229" fill="#111827" font-family="Inter, Arial, sans-serif" font-size="16" font-weight="800">Add</text>
  <rect x="70" y="315" width="1060" height="260" rx="18" fill="#0b1220" stroke="#334155"/>
  <g font-family="Inter, Arial, sans-serif" font-size="18">
    <text x="104" y="365" fill="#94a3b8">Company</text>
    <text x="332" y="365" fill="#94a3b8">Role</text>
    <text x="590" y="365" fill="#94a3b8">Status</text>
    <text x="762" y="365" fill="#94a3b8">Next action</text>
    <line x1="94" y1="389" x2="1108" y2="389" stroke="#1f2937"/>
    <text x="104" y="435" fill="#f8fafc">Example IT GmbH</text>
    <text x="332" y="435" fill="#cbd5e1">FISI</text>
    <rect x="590" y="410" width="84" height="32" rx="16" fill="#f59e0b" opacity="0.2"/>
    <text x="610" y="433" fill="#fbbf24">Ready</text>
    <text x="762" y="435" fill="#cbd5e1">Anschreiben anpassen</text>
    <line x1="94" y1="465" x2="1108" y2="465" stroke="#1f2937"/>
    <text x="104" y="512" fill="#f8fafc">Digital Solutions AG</text>
    <text x="332" y="512" fill="#cbd5e1">FIAE</text>
    <rect x="590" y="487" width="105" height="32" rx="16" fill="#38bdf8" opacity="0.16"/>
    <text x="608" y="510" fill="#67e8f9">Research</text>
    <text x="762" y="512" fill="#cbd5e1">Anforderungen prüfen</text>
  </g>
</svg>
